<mxfile host="65bd71144e">
    <diagram id="Uz5uLSqVxCiIaVeqQ0Wa" name="Page-1">
        <mxGraphModel dx="685" dy="449" grid="1" gridSize="10" guides="1" tooltips="1" connect="1" arrows="1" fold="1" page="1" pageScale="1" pageWidth="1169" pageHeight="827" math="0" shadow="0">
            <root>
                <mxCell id="0"/>
                <mxCell id="1" parent="0"/>
                <mxCell id="2" value="צריך להוסיף שרטוט של חיפוש מניות, מה ניתן לעשות אחר כך.&lt;br&gt;.להתייחס למקרה שבו המשתמש אינו מחובר שיופנה לדף ההתחברות" style="text;html=1;align=center;verticalAlign=middle;resizable=0;points=[];autosize=1;strokeColor=none;fillColor=none;" parent="1" vertex="1">
                    <mxGeometry x="85" y="50" width="380" height="40" as="geometry"/>
                </mxCell>
                <mxCell id="4" value="" style="rounded=0;whiteSpace=wrap;html=1;" vertex="1" parent="1">
                    <mxGeometry x="170" y="120" width="220" height="290" as="geometry"/>
                </mxCell>
                <mxCell id="5" value="System" style="text;html=1;strokeColor=none;fillColor=none;align=center;verticalAlign=middle;whiteSpace=wrap;rounded=0;" vertex="1" parent="1">
                    <mxGeometry x="170" y="120" width="60" height="30" as="geometry"/>
                </mxCell>
                <mxCell id="6" value="Actor" style="shape=umlActor;verticalLabelPosition=bottom;verticalAlign=top;html=1;outlineConnect=0;" vertex="1" parent="1">
                    <mxGeometry x="430" y="210" width="30" height="60" as="geometry"/>
                </mxCell>
                <mxCell id="7" value="חיפוש מניות&lt;br&gt;לפי טקסט" style="ellipse;whiteSpace=wrap;html=1;" vertex="1" parent="1">
                    <mxGeometry x="235" y="160" width="90" height="60" as="geometry"/>
                </mxCell>
                <mxCell id="8" value="צפייה בכלל&lt;br&gt;המניות לפי הטקסט" style="ellipse;whiteSpace=wrap;html=1;" vertex="1" parent="1">
                    <mxGeometry x="220" y="240" width="90" height="60" as="geometry"/>
                </mxCell>
                <mxCell id="9" value="צפייה במנייה&lt;br&gt;נבחרת" style="ellipse;whiteSpace=wrap;html=1;" vertex="1" parent="1">
                    <mxGeometry x="227.5" y="320" width="95" height="70" as="geometry"/>
                </mxCell>
            </root>
        </mxGraphModel>
    </diagram>
</mxfile>